<svg width="24" height="24" viewBox="0 0 24 24" fill="none" xmlns="http://www.w3.org/2000/svg">
<mask id="mask0_1536_28588" style="mask-type:alpha" maskUnits="userSpaceOnUse" x="0" y="0" width="24" height="24">
<rect width="24" height="24" fill="#D9D9D9"/>
</mask>
<g mask="url(#mask0_1536_28588)">
<path d="M19.8 22.6L15.6 18.45C15.0167 18.6334 14.4293 18.771 13.838 18.863C13.246 18.9544 12.6333 19 12 19C9.48333 19 7.24167 18.3044 5.275 16.913C3.30833 15.521 1.88333 13.7167 1 11.5C1.35 10.6167 1.79167 9.79571 2.325 9.03705C2.85833 8.27905 3.46667 7.60005 4.15 7.00005L1.4 4.20005L2.8 2.80005L21.2 21.2L19.8 22.6ZM12 16C12.1833 16 12.354 15.9917 12.512 15.975C12.6707 15.9584 12.8417 15.925 13.025 15.875L7.625 10.475C7.575 10.6584 7.54167 10.8294 7.525 10.988C7.50833 11.146 7.5 11.3167 7.5 11.5C7.5 12.75 7.93733 13.8127 8.812 14.688C9.68733 15.5627 10.75 16 12 16ZM19.3 16.45L16.125 13.3C16.2417 13.0167 16.3333 12.7294 16.4 12.438C16.4667 12.146 16.5 11.8334 16.5 11.5C16.5 10.25 16.0627 9.18738 15.188 8.31205C14.3127 7.43738 13.25 7.00005 12 7.00005C11.6667 7.00005 11.354 7.03338 11.062 7.10005C10.7707 7.16672 10.4833 7.26672 10.2 7.40005L7.65 4.85005C8.33333 4.56672 9.03333 4.35405 9.75 4.21205C10.4667 4.07072 11.2167 4.00005 12 4.00005C14.5167 4.00005 16.7583 4.69572 18.725 6.08705C20.6917 7.47905 22.1167 9.28338 23 11.5C22.6167 12.4834 22.1127 13.396 21.488 14.238C20.8627 15.0794 20.1333 15.8167 19.3 16.45ZM14.675 11.85L11.675 8.85005C12.1417 8.76672 12.571 8.80405 12.963 8.96205C13.3543 9.12071 13.6917 9.35005 13.975 9.65005C14.2583 9.95005 14.4627 10.296 14.588 10.688C14.7127 11.0794 14.7417 11.4667 14.675 11.85Z" fill="#CECECE"/>
</g>
</svg>
