<?xml version="1.0" encoding="UTF-8"?>
<!--Generator: Apple Native CoreSVG 175.5-->
<!DOCTYPE svg
PUBLIC "-//W3C//DTD SVG 1.1//EN"
       "http://www.w3.org/Graphics/SVG/1.1/DTD/svg11.dtd">
<svg version="1.1" xmlns="http://www.w3.org/2000/svg" xmlns:xlink="http://www.w3.org/1999/xlink" width="38.7147" height="38.7391">
 <g>
  <rect height="38.7391" opacity="0" width="38.7147" x="0" y="0"/>
  <path d="M0.631747 38.1073C1.48624 38.9374 2.90225 38.9374 3.73233 38.1073L19.3573 22.4823L34.9823 38.1073C35.8124 38.9374 37.2528 38.9618 38.0829 38.1073C38.913 37.2528 38.913 35.8612 38.0829 35.0312L22.4579 19.3817L38.0829 3.75675C38.913 2.92667 38.9374 1.51065 38.0829 0.680575C37.2284-0.173917 35.8124-0.173917 34.9823 0.680575L19.3573 16.3056L3.73233 0.680575C2.90225-0.173917 1.46183-0.198331 0.631747 0.680575C-0.198331 1.53507-0.198331 2.92667 0.631747 3.75675L16.2567 19.3817L0.631747 35.0312C-0.198331 35.8612-0.222745 37.2773 0.631747 38.1073Z" fill="#ffffff" fill-opacity="0.85"/>
 </g>
</svg>
